<?xml version="1.0" encoding="UTF-8" standalone="no"?>
<!-- Created with Inkscape (http://www.inkscape.org/) -->

<svg
   width="199.81607mm"
   height="55.486385mm"
   viewBox="0 0 199.81607 55.486385"
   version="1.1"
   id="svg1"
   inkscape:version="1.4 (e7c3feb1, 2024-10-09)"
   sodipodi:docname="logo.svg"
   xmlns:inkscape="http://www.inkscape.org/namespaces/inkscape"
   xmlns:sodipodi="http://sodipodi.sourceforge.net/DTD/sodipodi-0.dtd"
   xmlns="http://www.w3.org/2000/svg"
   xmlns:svg="http://www.w3.org/2000/svg">
  <sodipodi:namedview
     id="namedview1"
     pagecolor="#505050"
     bordercolor="#eeeeee"
     borderopacity="1"
     inkscape:showpageshadow="0"
     inkscape:pageopacity="0"
     inkscape:pagecheckerboard="0"
     inkscape:deskcolor="#505050"
     inkscape:document-units="mm"
     inkscape:zoom="0.43303213"
     inkscape:cx="445.69441"
     inkscape:cy="210.14607"
     inkscape:window-width="1472"
     inkscape:window-height="941"
     inkscape:window-x="217"
     inkscape:window-y="38"
     inkscape:window-maximized="0"
     inkscape:current-layer="layer1" />
  <defs
     id="defs1" />
  <g
     inkscape:label="Layer 1"
     inkscape:groupmode="layer"
     id="layer1"
     transform="translate(-0.95944407,-96.348568)">
    <path
       style="fill:#000000;stroke-width:0.266108;stroke-dasharray:none"
       d="m 43.13332,151.69119 c -0.159105,-0.0722 -0.370628,-0.23804 -0.469298,-0.36817 -0.09867,-0.13012 -0.43908,-0.86965 -0.756057,-1.64371 -0.316976,-0.77406 -0.861942,-2.08822 -1.211109,-2.92032 -0.349044,-0.83215 -0.792688,-1.89298 -0.985711,-2.3574 -0.871131,-2.09581 -1.156533,-2.53144 -1.656727,-2.52854 -0.152321,9.3e-4 -0.932922,0.25346 -1.879412,0.60867 -0.890186,0.33363 -2.093464,0.75427 -2.674012,0.9344 -1.327164,0.41195 -1.496839,0.48657 -1.59491,0.70167 -0.106625,0.23372 -0.05797,0.28491 0.885475,0.93243 0.926015,0.63531 1.07476,0.76216 1.219989,1.04053 0.163422,0.3139 0.170822,1.15351 0.0185,2.04709 -0.22694,1.31928 -0.511233,1.85838 -0.981024,1.85838 -0.349044,0 -0.426747,-0.13135 -0.641471,-1.08536 -0.304581,-1.35221 -0.382283,-1.4613 -1.725937,-2.42037 l -1.115832,-0.79645 -1.481588,0.0247 -1.481588,0.0247 -0.461096,0.22694 c -0.77486,0.38173 -1.540734,1.30898 -1.540734,1.86529 0,0.46869 0.684953,1.32483 1.605468,2.00689 0.557175,0.41256 0.613726,0.49088 0.547679,0.75371 -0.06044,0.24112 -0.430201,0.32684 -1.207829,0.27936 -0.972496,-0.0617 -1.563336,-0.15972 -2.179874,-0.37186 -1.024451,-0.35275 -1.662363,-0.89013 -2.092601,-1.76403 -0.192652,-0.3916 -0.226138,-0.54269 -0.249696,-1.12959 -0.03268,-0.80588 0.08529,-1.35387 0.446111,-2.07774 0.271588,-0.54453 0.920903,-1.39802 1.018185,-1.3379 0.03392,0.0185 0.08504,0.001 0.113039,-0.0432 0.03207,-0.0493 0.02035,-0.0635 -0.03022,-0.0308 -0.0444,0.0247 -0.08122,0.0185 -0.08122,-0.0123 0,-0.0728 0.892893,-0.88193 1.235499,-1.12009 0.34923,-0.24297 1.162811,-0.62717 1.579259,-0.746 0.757691,-0.21646 1.61145,-0.32068 2.960204,-0.36323 1.716958,-0.0555 2.345552,-0.12519 3.782529,-0.43107 1.383807,-0.29416 1.859518,-0.45819 3.144137,-1.08357 1.66166,-0.8091 2.784892,-1.61375 3.940808,-2.82301 1.637733,-1.71334 3.013744,-4.42842 3.401023,-6.71077 0.540834,-3.18913 0.0185,-5.96885 -1.576866,-8.38095 -0.207206,-0.3139 -0.52295,-0.73256 -0.701234,-0.93083 -0.201039,-0.22385 -0.304642,-0.39406 -0.272575,-0.45018 0.03083,-0.0493 0.02467,-0.0678 -0.0016,-0.0432 -0.03083,0.0247 -0.32931,-0.19487 -0.666884,-0.49273 -0.786953,-0.69402 -1.399569,-1.10121 -2.363079,-1.57082 -0.425514,-0.20721 -0.7872,-0.38543 -0.803357,-0.39468 -0.0185,-0.0123 0.101136,-0.29478 0.260858,-0.6334 0.554401,-1.17781 0.697657,-1.69336 1.031222,-3.71195 0.167122,-1.01316 0.693772,-4.72012 0.784425,-5.52397 0.07277,-0.64462 0.302176,-1.68522 0.44093,-1.99868 0.265792,-0.60065 0.845415,-1.0903 1.945398,-1.64285 0.495815,-0.24914 3.935443,-1.74016 6.333241,-2.74549 1.086971,-0.45573 3.961098,-1.6714 6.861002,-2.901873 4.872189,-2.06744 5.546165,-2.349388 6.227603,-2.605128 0.998044,-0.374328 1.721664,-0.526033 2.029328,-0.42428 0.362612,0.119637 0.503216,0.315127 0.501983,0.696917 -9.25e-4,0.299709 -0.453264,3.270964 -0.595102,3.906954 -0.07339,0.32931 -0.41503,0.70234 -0.84597,0.9225 -0.174522,0.0888 -1.266735,0.4841 -2.427708,0.87717 -2.477906,0.8395 -4.551265,1.57514 -7.986761,2.83361 -1.373915,0.50322 -3.422731,1.23917 -4.552808,1.63527 -1.316131,0.46128 -2.147609,0.79096 -2.313004,0.91707 -0.488415,0.37248 -0.648013,1.10418 -0.308343,1.41172 0.114704,0.1036 0.175139,0.1073 0.503216,0.0308 0.919602,-0.21337 4.94983,-1.21647 9.837498,-2.44836 5.322555,-1.34148 6.518309,-1.60672 6.858041,-1.52143 0.243591,0.0617 0.389746,0.28614 0.389746,0.5988 0,0.25655 -0.460048,1.87232 -0.994715,3.496 -0.297859,0.90486 -0.431063,1.0895 -0.920157,1.27537 -0.104837,0.037 -1.102018,0.15417 -2.216369,0.25407 -5.812574,0.5211 -13.03039,1.2446 -13.443631,1.34801 -0.08695,0.0247 -0.237424,0.13382 -0.334244,0.24853 -0.32006,0.38049 -0.191789,1.02203 0.233724,1.16646 0.103604,0.037 1.534685,0.0697 3.179571,0.0759 4.620397,0.0185 10.30692,0.0808 11.047929,0.12272 1.332905,0.0752 1.345918,0.22941 0.21214,2.52755 -0.995577,2.01817 -0.994837,2.01724 -1.711118,2.14965 -0.43538,0.0802 -0.84042,0.006 -9.33274,-1.6978 -1.91296,-0.3842 -3.585783,-0.69815 -3.717383,-0.69815 -0.727382,0 -0.893578,1.10831 -0.21399,1.42664 0.257158,0.12025 3.466391,1.1643 9.994136,3.2508 1.618245,0.5174 1.883728,0.66589 1.883728,1.05478 0,0.19795 -0.102986,0.33609 -0.721275,0.9685 -0.742244,0.75902 -1.703225,1.5247 -2.199103,1.75213 -0.154788,0.0709 -0.439697,0.12889 -0.633274,0.12827 -0.705427,-0.002 -0.652084,0.0308 -5.923762,-3.24457 -1.361643,-0.84517 -2.519409,-1.53666 -2.572814,-1.53666 -0.143688,0 -0.397146,0.26024 -0.447098,0.45943 -0.08264,0.32931 0.04933,0.55625 0.751802,1.26754 0.384812,0.39098 0.67521,0.73731 0.645671,0.76981 -0.03083,0.0308 -0.0185,0.037 0.03083,0.0123 0.101753,-0.0555 11.390375,11.25298 11.375759,11.39858 -0.0042,0.0555 0.0185,0.0808 0.04317,0.0617 0.07894,-0.0493 6.27959,6.19257 6.38196,6.42371 0.119637,0.26949 0.111003,0.73015 -0.0185,0.91282 -0.06167,0.0851 -0.451414,0.43229 -0.871069,0.77209 -0.419346,0.33979 -1.165105,0.94618 -1.656788,1.34764 -0.940076,0.76759 -1.216845,0.9011 -1.594627,0.76944 -0.255924,-0.0888 -3.395411,-3.54631 -3.324739,-3.66071 0.02467,-0.0432 0.0185,-0.0555 -0.02467,-0.0308 -0.08819,0.0555 -2.379051,-2.46891 -2.364868,-2.60501 0.0043,-0.0493 -0.0185,-0.0765 -0.04933,-0.0555 -0.03084,0.0185 -0.447098,-0.40085 -0.924228,-0.93317 -2.937275,-3.27806 -3.946358,-4.38525 -4.085174,-4.48244 -0.389129,-0.27258 -1.024254,-0.0308 -1.253723,0.47238 -0.239274,0.52788 -0.155405,0.82599 0.465598,1.65111 0.21399,0.28491 0.365695,0.5507 0.338561,0.59449 -0.03083,0.0493 -0.0185,0.0617 0.03083,0.0308 0.04317,-0.0308 0.460048,0.4508 1.010563,1.16782 0.5137,0.66836 1.830571,2.36505 2.926422,3.77036 1.100414,1.41116 1.971175,2.58958 1.944904,2.63214 -0.02467,0.0432 -0.0185,0.0555 0.03083,0.0308 0.04317,-0.0247 0.283676,0.22201 0.553168,0.56982 0.262708,0.33918 0.783684,0.99681 1.157149,1.46216 0.761052,0.94809 0.910352,1.196 0.910352,1.51125 0,0.53035 -0.178839,0.67873 -2.180602,1.80831 -1.309779,0.73916 -1.527901,0.82815 -1.871703,0.7637 -0.381729,-0.0715 -0.699754,-0.41379 -1.239292,-1.33315 -0.275042,-0.46868 -1.26581,-2.13429 -2.202001,-3.70172 -0.936191,-1.56749 -2.124421,-3.56247 -2.640526,-4.43329 -0.516166,-0.87082 -1.013585,-1.68337 -1.105533,-1.80566 -0.484098,-0.64382 -1.272284,-0.50876 -1.599375,0.27381 -0.06167,0.14307 -0.109153,0.34103 -0.109153,0.43908 0,0.19426 0.380495,0.94896 1.5456,3.06302 4.082276,7.40868 4.435884,8.08068 4.435514,8.42831 -2.47e-4,0.38173 -0.215224,0.68384 -0.611136,0.85953 -0.612986,0.27196 -3.022933,0.84795 -3.530342,0.84375 -0.10237,-9.8e-4 -0.315743,-0.0617 -0.475465,-0.1332 z m 3.069246,-0.52974 c 0,-0.0185 -0.03083,-0.0493 -0.0703,-0.0746 -0.037,-0.0247 -0.0703,-0.006 -0.0703,0.0308 0,0.0432 0.03083,0.0746 0.0703,0.0746 0.037,0 0.0703,-0.0123 0.0703,-0.0308 z M 27.771032,139.32916 c -3.184184,-0.46375 -6.090798,-2.21217 -8.316325,-5.00348 -1.256411,-1.57582 -1.950812,-3.04563 -2.417637,-5.11751 -0.281024,-1.24712 -0.341027,-2.01779 -0.299031,-3.8377 0.0407,-1.74028 0.138816,-2.70953 0.576848,-5.66715 0.489279,-3.30445 0.565008,-4.47992 0.346331,-5.37966 -0.350278,-1.44157 -1.31845,-2.60772 -2.421048,-2.91607 -0.665928,-0.18623 -1.177999,-0.23619 -4.398062,-0.43106 -2.6464893,-0.15972 -6.6534371,-0.45881 -7.9965607,-0.59633 -1.4430574,-0.14739 -1.7900728,-0.24545 -1.86022082,-0.5248 -0.11803369,-0.47054 0.15571322,-0.70352 1.06781642,-0.90925 1.9711688,-0.44463 5.4666189,-1.09079 9.5717061,-1.76951 1.531015,-0.25285 2.867867,-0.50384 2.970792,-0.55749 0.238534,-0.12395 0.376364,-0.28244 0.924079,-1.06076 1.627435,-2.31288 3.241172,-3.53435 5.266165,-3.98601 0.671417,-0.14986 0.801877,-0.15232 8.457707,-0.18254 5.472828,-0.0185 7.851448,-0.006 8.031274,0.0432 0.289842,0.087 0.458814,0.38049 0.374945,0.65116 -0.0666,0.21584 -1.582417,1.75404 -1.673008,1.6981 -0.04317,-0.0247 -0.04933,-0.006 -0.0185,0.0432 0.03083,0.0493 -0.108537,0.24914 -0.358295,0.50753 -0.465598,0.48102 -0.701789,0.88618 -0.755379,1.29578 -0.0185,0.15479 -0.0555,1.95977 -0.0777,4.01099 -0.0555,5.12275 -0.140604,6.2754 -0.527266,7.17934 -0.353978,0.82808 -0.79164,1.02104 -2.708769,1.19489 -1.20279,0.10915 -2.74712,0.54391 -3.794561,1.06896 -1.223573,0.61299 -2.507957,1.66524 -3.280338,2.68715 -0.741386,0.98096 -1.413598,2.57534 -1.732369,4.10891 -0.169034,0.81323 -0.171007,2.42777 -0.0039,3.20221 0.827192,3.83375 3.681726,6.45417 7.461956,6.85002 2.105156,0.22016 4.260732,-0.49581 5.785118,-1.92159 2.778602,-2.59921 2.932589,-7.08634 0.326227,-9.49956 -1.185579,-1.09764 -2.526192,-1.60295 -4.018591,-1.51458 -1.139413,0.0672 -2.095727,0.48102 -2.940198,1.27075 -0.940335,0.87964 -1.420357,1.8873 -1.480003,3.10692 -0.05797,1.17978 0.260673,2.06997 1.009176,2.82153 1.426443,1.43231 3.571086,1.29627 4.354635,-0.27628 0.388512,-0.77992 0.11902,-1.7245 -0.580918,-2.03408 -0.311673,-0.13813 -0.315928,-0.13813 -0.499084,-0.002 -0.101568,0.0752 -0.295578,0.29971 -0.431002,0.49829 -0.282936,0.41502 -0.511726,0.52726 -0.873184,0.42736 -0.32191,-0.0888 -0.507718,-0.33548 -0.604722,-0.80268 -0.261969,-1.26199 0.652971,-2.46588 2.060409,-2.71101 1.239742,-0.21584 2.701596,0.63062 3.312671,1.91826 0.302176,0.63716 0.397762,1.0866 0.396529,1.86998 -0.0022,1.20827 -0.426747,2.29684 -1.237196,3.17235 -1.109973,1.1989 -2.30836,1.68497 -3.961368,1.60672 -1.691286,-0.0802 -3.019838,-0.70229 -4.196561,-1.96563 -1.456538,-1.56373 -2.019332,-3.82327 -1.489413,-5.97988 0.350586,-1.42676 1.085077,-2.71095 2.113203,-3.69469 0.670616,-0.64166 1.170668,-0.98657 1.968246,-1.35751 1.037784,-0.48286 1.825841,-0.6844 2.933791,-0.75106 2.589181,-0.15602 5.224958,1.11891 6.86263,3.31913 0.727689,0.97769 1.232015,2.10857 1.521981,3.41292 0.229407,1.03055 0.230023,2.66187 0.0031,3.7119 -0.458815,2.1156 -1.400494,3.89579 -2.880232,5.4454 -1.767299,1.85067 -4.025788,3.00042 -6.548305,3.33368 -0.963362,0.12703 -2.416237,0.12457 -3.316161,-0.006 z m 7.488627,-8.26137 c 0.02467,-0.0432 -0.0036,-0.0493 -0.06598,-0.0308 -0.122104,0.0493 -0.144305,0.0974 -0.04317,0.0974 0.037,0 0.08572,-0.0308 0.109153,-0.0697 z m -12.817552,-4.54263 c -0.02282,-0.0617 -0.05673,-0.0937 -0.07524,-0.0752 -0.0185,0.0185 -0.01233,0.0672 0.01233,0.10854 0.06944,0.11224 0.109955,0.0906 0.06235,-0.0308 z m 3.458979,-11.33512 c 1.744019,-0.44217 3.173071,-1.92869 3.629036,-3.77468 0.181491,-0.73465 0.253027,-2.10974 0.143935,-2.76466 -0.04502,-0.26888 -0.196476,-0.87927 -0.337019,-1.35652 l -0.255616,-0.86768 0.749631,-0.75193 c 0.452524,-0.45388 0.749212,-0.8073 0.748558,-0.8916 -0.0028,-0.36693 0.214792,-0.3509 -4.658304,-0.3509 -4.198176,0 -4.551623,0.0123 -4.9108,0.12889 -1.73956,0.57969 -2.94774,1.80245 -3.548103,3.59115 -0.175755,0.52357 -0.124262,0.55317 0.917537,0.52542 0.996139,-0.0247 1.08607,-0.0678 1.518805,-0.69896 0.373896,-0.54515 1.064788,-1.1593 1.581312,-1.40579 2.109196,-1.00662 4.511409,-0.0876 5.166792,1.9761 0.19142,0.60312 0.207145,1.62491 0.03392,2.21662 -0.362118,1.23824 -1.38105,2.202 -2.676935,2.53205 -0.267333,0.0678 -0.745808,0.10669 -1.319418,0.10669 -1.03816,0 -1.039369,0.001 -0.694968,0.60127 0.401894,0.70061 1.103744,1.15894 1.976392,1.29054 0.552921,0.0833 1.362302,0.037 1.935148,-0.10669 z m -2.433406,-3.68119 c 0.209735,-0.0721 0.431434,-0.11593 0.492609,-0.0968 0.08072,0.0247 0.08708,0.0185 0.02343,-0.0308 -0.06592,-0.0493 -0.03269,-0.11594 0.132032,-0.27073 0.339116,-0.31882 0.552983,-0.83499 0.551996,-1.33272 -0.0028,-1.37662 -1.510196,-2.24492 -2.661555,-1.53308 -1.036224,0.64062 -1.225454,1.95336 -0.406951,2.82332 0.509938,0.54206 1.140258,0.68982 1.868811,0.43846 z"
       id="path1" />
    <text
       xml:space="preserve"
       style="font-style:normal;font-variant:normal;font-weight:normal;font-stretch:normal;font-size:32.633px;font-family:Georgia;-inkscape-font-specification:Georgia;text-align:center;writing-mode:lr-tb;direction:ltr;text-anchor:middle;fill:#ffffff;stroke-width:5.22333;stroke-dasharray:none"
       x="134.88011"
       y="137.22897"
       id="text19"><tspan
         sodipodi:role="line"
         id="tspan19"
         style="font-size:32.633px;fill:#000000;stroke-width:5.22333"
         x="134.88011"
         y="137.22897">IXIPTLA</tspan></text>
  </g>
</svg>
