<?xml version="1.0" encoding="UTF-8"?>
<!-- Created with Inkscape (http://www.inkscape.org/) -->
<svg width="200.07mm" height="176.6mm" version="1.1" viewBox="0 0 200.07 176.6" xml:space="preserve" xmlns="http://www.w3.org/2000/svg"><g transform="translate(-3.6998 -5.3719)"><path d="m140.05 181.55c-0.50705-0.23026-1.1793-0.7572-1.4939-1.171-0.31459-0.41376-1.3975-2.7681-2.4064-5.2319-1.0089-2.4638-2.7436-6.6466-3.8549-9.2951-1.1112-2.6486-2.5232-6.025-3.1376-7.5033-2.7726-6.6709-3.6811-8.0574-5.2731-8.0482-0.48569 3e-3 -2.9694 0.80682-5.982 1.9365-2.8333 1.0624-6.6634 2.4008-8.5112 2.9741-4.2242 1.3107-4.7643 1.5483-5.0765 2.2334-0.33929 0.74464-0.18461 0.90752 2.8183 2.9678 2.9474 2.0222 3.4209 2.426 3.8833 3.312 0.52103 0.99835 0.54326 3.6716 0.0542 6.5158-0.72201 4.1991-1.6278 5.915-3.1226 5.915-1.1103 0-1.358-0.41918-2.0417-3.4547-0.96943-4.3039-1.2169-4.651-5.4935-7.7036l-3.5516-2.5352-9.4315 0.1428-1.4676 0.72308c-2.4663 1.2151-4.904 4.1664-4.904 5.9372 0 1.4916 2.1801 4.2168 5.11 6.3876 1.7734 1.314 1.9534 1.5616 1.7432 2.3991-0.19258 0.76732-1.3693 1.0394-3.8444 0.88885-3.0954-0.18825-4.976-0.50924-6.9384-1.1843-3.2607-1.1217-5.2912-2.8333-6.6606-5.6148-0.61322-1.2456-0.71967-1.7272-0.79471-3.5954-0.10303-2.5651 0.27147-4.3093 1.4199-6.6132 0.86445-1.7342 2.9311-4.4499 3.2408-4.2585 0.10875 0.0672 0.27066 4e-3 0.3598-0.14005 0.10122-0.16378 0.06499-0.20222-0.09651-0.10242-0.14222 0.0879-0.25858 0.0654-0.25858-0.0499 0-0.23039 2.842-2.8069 3.9325-3.5652 1.1116-0.77291 3.7011-1.9961 5.0267-2.3744 2.4117-0.68823 5.1291-1.0218 9.4221-1.1565 5.4649-0.1715 7.4657-0.39945 12.039-1.3716 4.4046-0.93624 5.9186-1.458 10.007-3.4489 5.289-2.5753 8.8642-5.1364 12.543-8.9854 5.2128-5.4534 9.5924-14.095 10.825-21.36 1.7223-10.151 0.0576-18.998-5.019-26.676-0.66025-0.99852-1.6646-2.3318-2.232-2.9628-0.64095-0.71289-0.96933-1.2552-0.8673-1.4322 0.0903-0.15671 0.0874-0.21586-7e-3 -0.13145-0.0939 0.0844-1.0491-0.62111-2.1226-1.5678-2.5048-2.209-4.4547-3.5051-7.5215-4.9997-1.3551-0.6604-2.5057-1.226-2.557-1.2568-0.0513-0.0308 0.32198-0.93806 0.82942-2.016 1.7647-3.7489 2.2206-5.3899 3.2822-11.815 0.53278-3.2247 2.2083-15.024 2.4968-17.582 0.23133-2.0517 0.96196-5.3638 1.4033-6.3616 0.84595-1.9124 2.6909-3.4704 6.1921-5.2289 1.5787-0.79292 12.526-5.5388 20.158-8.7388 3.4598-1.4507 12.608-5.3199 21.838-9.2364 15.508-6.5804 17.653-7.4778 19.822-8.2918 3.1766-1.1922 5.4799-1.6738 6.459-1.3507 1.1544 0.38099 1.6026 1.003 1.5983 2.2181-3e-3 0.95497-1.4433 10.411-1.8936 12.436-0.23315 1.0481-1.322 2.2355-2.6925 2.9363-0.55459 0.28356-4.0319 1.5399-7.7273 2.792-7.887 2.6721-14.486 5.0135-25.421 9.0192-4.3732 1.602-10.894 3.9442-14.491 5.2049-4.189 1.4681-6.8355 2.5175-7.3619 2.919-1.5541 1.1854-2.0627 3.5145-0.98118 4.4933 0.36498 0.3303 0.55793 0.34236 1.6017 0.10011 2.9269-0.67933 15.755-3.8719 31.312-7.7928 16.941-4.2698 20.747-5.1141 21.829-4.8427 0.77431 0.19434 1.2412 0.91101 1.2412 1.9052 0 0.81579-1.4635 5.9595-3.1661 11.128-0.94884 2.8802-1.3728 3.4678-2.9288 4.0594-0.33299 0.1266-3.5074 0.49023-7.0543 0.80806-18.501 1.6579-41.475 3.9614-42.79 4.2906-0.27754 0.06944-0.75629 0.42537-1.0639 0.79094-1.0186 1.2105-0.6096 3.253 0.74337 3.7128 0.33064 0.11236 4.8848 0.22084 10.12 0.24107 14.706 0.0568 32.806 0.25774 35.165 0.39034 4.2426 0.23854 4.2838 0.73044 0.67546 8.045-3.1688 6.4235-3.1665 6.4206-5.4463 6.842-1.3853 0.25608-2.6751 0.0214-29.705-5.404-6.0887-1.2221-11.413-2.222-11.832-2.222-2.3151 0-2.8442 3.5276-0.68107 4.5408 0.81773 0.383 11.033 3.7059 31.811 10.347 5.1509 1.6465 5.9957 2.1195 5.9957 3.3571 0 0.63002-0.32759 1.0699-2.2958 3.0827-2.3624 2.416-5.4211 4.8531-6.9993 5.5769-0.49302 0.22612-1.3995 0.40983-2.0158 0.4085-2.2452-5e-3 -2.0756 0.0881-18.855-10.327-4.3339-2.6902-8.019-4.8912-8.189-4.8912-0.45767 0-1.264 0.82844-1.423 1.4621-0.26312 1.0484 0.16548 1.771 2.3929 4.0346 1.2243 1.2442 2.1491 2.3468 2.0551 2.4503-0.094 0.10349-0.0495 0.11849 0.0989 0.0334 0.32353-0.18567 36.254 35.817 36.208 36.281-0.0168 0.16836 0.0486 0.2571 0.1455 0.19721 0.25098-0.15512 19.987 19.711 20.313 20.446 0.38019 0.85859 0.35278 2.3241-0.0543 2.9053-0.18943 0.27045-1.437 1.3764-2.7724 2.4576s-3.7085 3.0115-5.2736 4.2894c-2.992 2.4431-3.8729 2.8682-5.0754 2.449-0.81316-0.28347-10.807-11.288-10.582-11.652 0.0865-0.14003 0.0493-0.18212-0.0869-0.098-0.28094 0.17363-7.5726-7.8585-7.5272-8.2916 0.0168-0.16114-0.0505-0.2428-0.14976-0.18146-0.0993 0.0614-1.423-1.2752-2.9418-2.9701-9.3492-10.434-12.561-13.958-13.003-14.267-1.2385-0.86746-3.2601-0.1059-3.9906 1.5033-0.76258 1.6799-0.49492 2.6292 1.4818 5.2555 0.68177 0.90582 1.1635 1.7518 1.0771 1.8915-0.0922 0.14923-0.0562 0.19102 0.0878 0.10198 0.14397-0.089 1.4633 1.4356 3.2166 3.717 1.6349 2.1273 5.8264 7.5276 9.3144 12.001 3.5025 4.4916 6.2741 8.2425 6.1904 8.3778-0.0864 0.1398-0.0488 0.18155 0.0877 0.0972 0.13485-0.0834 0.90244 0.70718 1.7606 1.8132 0.83685 1.0785 2.4943 3.1728 3.6832 4.654 2.4222 3.0176 2.8975 3.8068 2.8975 4.8103 0 1.6874-0.57031 2.1603-6.9407 5.7555-4.169 2.3528-4.8633 2.6361-5.9575 2.4308-1.2152-0.22797-2.2273-1.3167-3.9446-4.2433-0.87499-1.4912-4.0289-6.7932-7.0088-11.782-2.9798-4.9891-6.7619-11.339-8.4046-14.111-1.6427-2.7717-3.2261-5.358-3.5188-5.7472-1.5405-2.0492-4.0497-1.6196-5.0906 0.87156-0.19067 0.45632-0.34666 1.0854-0.34666 1.3978 0 0.61897 1.2118 3.0204 4.9194 9.7492 12.993 23.581 14.119 25.72 14.118 26.827-8.4e-4 1.2147-0.68531 2.1766-1.9457 2.736-1.9508 0.86564-9.6218 2.6989-11.237 2.6855-0.32516-3e-3 -1.0061-0.19332-1.5131-0.42358zm9.7691-1.6861c0-0.0544-0.1008-0.16106-0.22398-0.23719-0.12319-0.0761-0.22398-0.0317-0.22398 0.0988 0 0.13046 0.10079 0.2372 0.22398 0.2372 0.12318 0 0.22398-0.0444 0.22398-0.0988zm-58.666-37.661c-10.135-1.4752-19.386-7.0413-26.47-15.926-3.999-5.0156-6.2093-9.6941-7.6951-16.289-0.89443-3.9695-1.0855-6.4225-0.95168-12.215 0.12799-5.5391 0.44199-8.6241 1.836-18.038 1.5574-10.518 1.7983-14.259 1.1024-17.123-1.1149-4.5883-4.1965-8.3-7.706-9.2816-2.1196-0.5928-3.7495-0.75255-13.999-1.372-8.4236-0.50911-21.177-1.4598-25.452-1.8973-4.5931-0.47002-5.6977-0.7818-5.9209-1.6713-0.37578-1.4972 0.49556-2.2392 3.3988-2.894 6.2741-1.415 17.4-3.4719 30.466-5.6324 4.8731-0.80576 9.1282-1.6045 9.4558-1.7749 0.7593-0.3951 1.1979-0.8986 2.9413-3.3762 5.18-7.3617 10.316-11.25 16.762-12.687 2.1371-0.47668 2.5523-0.48563 26.92-0.58015 17.42-0.06757 24.99-0.02396 25.563 0.14725 0.92304 0.27613 1.4612 1.2101 1.1943 2.0726-0.21234 0.68621-5.0367 5.583-5.3249 5.4049-0.12805-0.07913-0.15326-0.02457-0.0591 0.12784 0.10023 0.16218-0.34497 0.79194-1.1413 1.6144-1.4813 1.53-2.2338 2.8207-2.4044 4.1243-0.0644 0.49275-0.17573 6.2378-0.24726 12.767-0.17863 16.305-0.44821 19.974-1.6791 22.851-1.1275 2.6356-2.5198 3.2498-8.6218 3.8032-3.8284 0.34725-8.7438 1.732-12.078 3.4024-3.8945 1.9513-7.9826 5.3001-10.441 8.5529-2.3598 3.1222-4.4994 8.1971-5.514 13.078-0.53801 2.5883-0.54426 7.7273-0.0124 10.192 2.6329 12.203 11.719 20.543 23.751 21.803 6.7005 0.70159 13.562-1.5774 18.414-6.1162 8.844-8.2731 9.3342-22.555 1.0377-30.236-3.7737-3.4937-8.0407-5.1019-12.791-4.8207-3.6266 0.21469-6.6705 1.5302-9.3584 4.0446-2.993 2.7998-4.5209 6.0072-4.7107 9.8892-0.18365 3.7552 0.82976 6.5885 3.2121 8.9806 4.5402 4.5588 11.366 4.1259 13.861-0.879 1.237-2.4824 0.37828-5.489-1.8492-6.4743-0.99197-0.4388-1.0055-0.43886-1.5885-7e-3 -0.32338 0.23989-0.94073 0.95371-1.3719 1.5863-0.90064 1.3214-1.6288 1.6777-2.7793 1.36-1.0247-0.28293-1.616-1.0678-1.9247-2.5549-0.83391-4.0169 2.0784-7.8488 6.5581-8.6289 3.9459-0.68715 8.5988 2.0072 10.544 6.1055 0.9625 2.0281 1.2657 3.4586 1.2614 5.9522-7e-3 3.8458-1.3577 7.3106-3.9377 10.097-3.533 3.816-7.3473 5.3631-12.609 5.1141-5.3832-0.25473-9.6119-2.2354-13.357-6.2564-4.636-4.9772-6.4274-12.169-4.7407-19.033 1.1159-4.5413 3.4537-8.6287 6.7261-11.76 2.1345-2.0424 3.7261-3.1401 6.2648-4.3208 3.3032-1.5362 5.8115-2.1784 9.338-2.3907 8.241-0.4962 16.631 3.5615 21.843 10.565 2.3162 3.1118 3.9213 6.7113 4.8443 10.863 0.72919 3.2801 0.73253 8.4725 8e-3 11.815-1.4606 6.7339-4.4576 12.4-9.1676 17.332-5.6251 5.8905-12.814 9.5501-20.843 10.611-3.0663 0.40509-7.6907 0.39587-10.555-0.0211zm23.836-26.295c0.0785-0.12696-0.0114-0.16451-0.21076-0.088-0.38802 0.1489-0.45901 0.30944-0.13684 0.30944 0.11592 0 0.27234-0.0996 0.3476-0.22142zm-40.797-14.459c-0.07295-0.1901-0.18067-0.29759-0.23938-0.23888-0.05872 0.0588-0.04031 0.21424 0.04089 0.34563 0.22085 0.35735 0.34994 0.28792 0.19849-0.10675zm11.01-36.079c5.5511-1.4077 10.1-6.1388 11.551-12.014 0.57756-2.3383 0.80536-6.7151 0.45799-8.7996-0.14261-0.8558-0.62538-2.7988-1.0728-4.3177l-0.81354-2.7617 2.386-2.3934c1.4404-1.4449 2.3847-2.5695 2.3826-2.8377-9e-3 -1.1684 0.68367-1.1162-14.827-1.1162-13.362 0-14.487 0.02954-15.631 0.41043-5.5369 1.8447-9.3824 5.7369-11.293 11.43-0.55934 1.6665-0.39562 1.7602 2.9204 1.6715 3.1706-0.08483 3.4569-0.21655 4.8342-2.2246 1.1901-1.735 3.3891-3.69 5.0332-4.4746 6.7134-3.204 14.359-0.27965 16.445 6.2899 0.60926 1.9187 0.65928 5.1719 0.10848 7.0553-1.1526 3.9411-4.3958 7.0087-8.5205 8.0592-0.85081 0.21668-2.3738 0.33998-4.1996 0.33998-3.3044 0-3.3082 0.0034-2.212 1.9144 1.2792 2.2301 3.5131 3.6889 6.2907 4.1078 1.7599 0.26542 4.3361 0.12381 6.1594-0.33855zm-7.7453-11.717c0.66759-0.23048 1.3731-0.36887 1.5678-0.30753 0.25695 0.08094 0.27711 0.05595 0.07351-0.09114-0.20976-0.15155-0.10374-0.36875 0.42029-0.86105 1.0794-1.014 1.7602-2.6577 1.7569-4.242-0.0089-4.3817-4.8068-7.1454-8.4715-4.8797-3.2982 2.0391-3.9005 6.2175-1.2954 8.9864 1.6231 1.7251 3.6293 2.1956 5.9483 1.395z" stroke-width=".84653"/></g></svg>
