<?xml version="1.0" encoding="UTF-8" standalone="no"?>
<!-- Created with Inkscape (http://www.inkscape.org/) -->

<svg
   width="200.07401mm"
   height="176.60031mm"
   viewBox="0 0 200.07401 176.60031"
   version="1.1"
   id="svg1"
   xml:space="preserve"
   xmlns="http://www.w3.org/2000/svg"
   xmlns:svg="http://www.w3.org/2000/svg"><defs
     id="defs1" /><g
     id="layer1"
     style="display:inline"
     transform="translate(-3.6997897,-5.3719037)"><path
       style="fill:#000000;stroke-width:0.846533"
       d="m 140.05228,181.54851 c -0.50705,-0.23026 -1.1793,-0.7572 -1.4939,-1.17097 -0.31459,-0.41376 -1.39746,-2.76811 -2.40639,-5.23187 -1.00892,-2.46377 -2.74361,-6.64656 -3.85487,-9.29511 -1.11125,-2.64855 -2.52316,-6.02502 -3.13756,-7.50328 -2.77265,-6.67093 -3.68108,-8.05744 -5.27312,-8.04825 -0.48569,0.003 -2.9694,0.80682 -5.98203,1.93648 -2.83332,1.06242 -6.66335,2.40077 -8.51117,2.97411 -4.22425,1.31069 -4.76431,1.54829 -5.07647,2.23341 -0.33929,0.74464 -0.18461,0.90752 2.81832,2.96778 2.94742,2.02216 3.42087,2.42596 3.88326,3.31195 0.52103,0.99835 0.54326,3.67157 0.0542,6.51585 -0.72201,4.19909 -1.62784,5.91496 -3.12259,5.91496 -1.11027,0 -1.358,-0.41918 -2.04173,-3.4547 -0.96943,-4.30389 -1.21694,-4.65099 -5.49351,-7.70364 l -3.551601,-2.53517 -4.715773,0.0714 -4.715773,0.0714 -1.467601,0.72308 c -2.466334,1.21514 -4.904024,4.1664 -4.904024,5.93719 0,1.49164 2.180137,4.21683 5.110048,6.38762 1.773433,1.31395 1.953393,1.56162 1.743197,2.3991 -0.192583,0.76732 -1.369326,1.03939 -3.844405,0.88885 -3.095379,-0.18825 -4.975984,-0.50924 -6.938357,-1.1843 -3.26073,-1.12167 -5.291166,-2.8333 -6.660575,-5.61479 -0.613222,-1.24555 -0.719674,-1.72715 -0.794714,-3.59544 -0.103027,-2.56508 0.27147,-4.30927 1.419939,-6.61324 0.864449,-1.73419 2.931148,-4.44988 3.24081,-4.25849 0.10875,0.0672 0.27066,0.004 0.3598,-0.14005 0.10122,-0.16378 0.06499,-0.20222 -0.09651,-0.10242 -0.142222,0.0879 -0.258585,0.0654 -0.258585,-0.0499 0,-0.23039 2.841993,-2.80694 3.932474,-3.56519 1.111561,-0.77291 3.70113,-1.99611 5.026665,-2.37438 2.411675,-0.68823 5.12911,-1.02177 9.422084,-1.1565 5.464938,-0.1715 7.465691,-0.39945 12.039461,-1.37165 4.4046,-0.93624 5.91859,-1.45802 10.00743,-3.44894 5.289,-2.5753 8.86417,-5.13635 12.5434,-8.98541 5.21276,-5.45335 9.5924,-14.09525 10.82502,-21.35986 1.72232,-10.15072 0.0576,-18.998192 -5.01902,-26.675782 -0.66025,-0.99852 -1.66463,-2.33175 -2.23195,-2.96275 -0.64095,-0.71289 -0.96933,-1.25515 -0.8673,-1.43221 0.0903,-0.15671 0.0874,-0.21586 -0.007,-0.13145 -0.0939,0.0844 -1.04908,-0.62111 -2.12262,-1.56784 -2.50485,-2.20901 -4.45472,-3.50513 -7.52154,-4.99974 -1.35507,-0.6604 -2.5057,-1.22596 -2.55696,-1.25682 -0.0513,-0.0308 0.32198,-0.93806 0.82942,-2.01602 1.76473,-3.7489 2.22059,-5.38991 3.28215,-11.814995 0.53278,-3.224656 2.20834,-15.023686 2.49683,-17.582313 0.23133,-2.051711 0.96196,-5.363824 1.40333,-6.361629 0.84595,-1.912383 2.69091,-3.470361 6.19211,-5.228913 1.57867,-0.792918 12.52618,-5.538817 20.15807,-8.738801 3.45977,-1.450653 12.60782,-5.319856 21.8379,-9.236426 15.50781,-6.5803766 17.65309,-7.4777696 19.8221,-8.2917866 3.17661,-1.192171 5.47989,-1.673816 6.45903,-1.35067 1.15441,0.38099 1.60262,1.002998 1.59832,2.218092 -0.003,0.954972 -1.44333,10.4112876 -1.89361,12.4355306 -0.23315,1.048146 -1.32195,2.235527 -2.69251,2.936298 -0.55459,0.283562 -4.03186,1.539942 -7.72726,2.791956 -7.88695,2.672123 -14.48637,5.013539 -25.42112,9.019194 -4.37318,1.601998 -10.89429,3.944193 -14.49136,5.20488 -4.18899,1.468142 -6.83554,2.517491 -7.3619,2.918969 -1.55412,1.185378 -2.06272,3.514546 -0.98118,4.493328 0.36498,0.330299 0.55793,0.34236 1.60167,0.100114 2.92693,-0.679331 15.75478,-3.871903 31.3118,-7.792825 16.94129,-4.269809 20.74711,-5.114133 21.82858,-4.842701 0.77431,0.194342 1.2412,0.91101 1.2412,1.905244 0,0.815787 -1.46353,5.959547 -3.16606,11.127516 -0.94884,2.880177 -1.3728,3.46779 -2.92882,4.059389 -0.33299,0.1266 -3.50743,0.49023 -7.05433,0.808065 -18.50092,1.657853 -41.47463,3.961449 -42.79007,4.2906 -0.27754,0.06944 -0.75629,0.425367 -1.0639,0.790937 -1.01855,1.210482 -0.6096,3.253022 0.74337,3.712791 0.33064,0.11236 4.88475,0.220844 10.12025,0.241067 14.70629,0.0568 32.80606,0.257736 35.16462,0.390337 4.24255,0.238536 4.28385,0.730439 0.67546,8.044982 -3.16884,6.42354 -3.16649,6.42059 -5.44633,6.84204 -1.38527,0.25608 -2.67509,0.0214 -29.70533,-5.40396 -6.08873,-1.2221 -11.41318,-2.22201 -11.83209,-2.22201 -2.31511,0 -2.84421,3.5276 -0.68107,4.54075 0.81773,0.383 11.03329,3.70587 31.81051,10.34717 5.15091,1.64646 5.99573,2.11948 5.99573,3.35711 0,0.63002 -0.32759,1.06989 -2.29578,3.08272 -2.36242,2.41599 -5.42109,4.85306 -6.99933,5.57689 -0.49302,0.22612 -1.39952,0.40983 -2.01581,0.4085 -2.24519,-0.005 -2.07555,0.0881 -18.85484,-10.3271 -4.33394,-2.69016 -8.01898,-4.8912 -8.18897,-4.8912 -0.45767,0 -1.26398,0.82844 -1.42301,1.46206 -0.26312,1.04837 0.16548,1.77102 2.39292,4.03457 1.22433,1.24416 2.14913,2.34678 2.05514,2.45026 -0.094,0.10349 -0.0495,0.11849 0.0989,0.0334 0.32353,-0.18567 36.25448,35.817272 36.208,36.280562 -0.0168,0.16836 0.0486,0.2571 0.1455,0.19721 0.25098,-0.15512 19.98741,19.71062 20.31314,20.44624 0.38019,0.85859 0.35278,2.32408 -0.0543,2.90532 -0.18943,0.27045 -1.43701,1.37637 -2.7724,2.45761 -1.33539,1.08124 -3.70851,3.01148 -5.27358,4.28943 -2.99204,2.44313 -3.87292,2.86818 -5.0754,2.44899 -0.81316,-0.28347 -10.80741,-11.28752 -10.58239,-11.65163 0.0865,-0.14003 0.0493,-0.18212 -0.0869,-0.098 -0.28094,0.17363 -7.57256,-7.8585 -7.52717,-8.29161 0.0168,-0.16114 -0.0505,-0.2428 -0.14976,-0.18146 -0.0993,0.0614 -1.42305,-1.27521 -2.94177,-2.97012 -9.34922,-10.43384 -12.56092,-13.9579 -13.00278,-14.26739 -1.23847,-0.86746 -3.26009,-0.1059 -3.99058,1.50329 -0.76258,1.6799 -0.49492,2.62924 1.4818,5.25554 0.68177,0.90582 1.16349,1.75175 1.07711,1.89151 -0.0922,0.14923 -0.0562,0.19102 0.0878,0.10198 0.14397,-0.089 1.46334,1.43562 3.21665,3.71703 1.63492,2.12734 5.82641,7.52765 9.31443,12.0007 3.50248,4.4916 6.27407,8.2425 6.19044,8.37781 -0.0864,0.1398 -0.0488,0.18155 0.0877,0.0972 0.13485,-0.0834 0.90244,0.70718 1.76062,1.81322 0.83685,1.07854 2.49428,3.17284 3.68317,4.65399 2.42219,3.01764 2.89752,3.80675 2.89752,4.81027 0,1.68739 -0.57031,2.16032 -6.94066,5.75552 -4.16898,2.35282 -4.86326,2.63611 -5.95748,2.43083 -1.21519,-0.22797 -2.22731,-1.31673 -3.94457,-4.24328 -0.87499,-1.49115 -4.02893,-6.7932 -7.00875,-11.78232 -2.97981,-4.98912 -6.76187,-11.33891 -8.40458,-14.11064 -1.64271,-2.77174 -3.22614,-5.35799 -3.51876,-5.74723 -1.54053,-2.04923 -4.04969,-1.61964 -5.09058,0.87156 -0.19067,0.45632 -0.34666,1.08535 -0.34666,1.39785 0,0.61897 1.21175,3.02042 4.91937,9.74921 12.99348,23.58128 14.11907,25.7201 14.11796,26.82655 -8.4e-4,1.21473 -0.68531,2.17665 -1.94574,2.73596 -1.95076,0.86564 -9.62177,2.69892 -11.2369,2.68548 -0.32516,-0.003 -1.00606,-0.19332 -1.51311,-0.42358 z m 9.76907,-1.68608 c 0,-0.0544 -0.1008,-0.16106 -0.22398,-0.23719 -0.12319,-0.0761 -0.22398,-0.0317 -0.22398,0.0988 0,0.13046 0.10079,0.2372 0.22398,0.2372 0.12318,0 0.22398,-0.0444 0.22398,-0.0988 z M 91.155439,142.20135 c -10.134999,-1.47518 -19.386493,-7.04133 -26.470171,-15.92576 -3.99905,-5.01564 -6.209265,-9.69407 -7.695142,-16.28853 -0.894426,-3.96954 -1.085537,-6.42252 -0.951681,-12.215212 0.127994,-5.53907 0.441993,-8.62409 1.835961,-18.03809 1.55739,-10.51767 1.798275,-14.259127 1.10242,-17.122965 C 57.861964,58.022486 54.780312,54.310766 51.270822,53.32923 49.151249,52.736428 47.521355,52.576683 37.272167,51.957229 28.848606,51.448116 16.094837,50.497422 11.819799,50.059955 7.22665,49.589935 6.1221328,49.278155 5.8988705,48.388607 5.5230865,46.891361 6.3944347,46.149432 9.2976309,45.494656 15.571697,44.079625 26.697422,42.022771 39.763583,39.862303 c 4.873075,-0.805756 9.128166,-1.604479 9.455758,-1.774941 0.759297,-0.395099 1.197935,-0.8986 2.941271,-3.376202 5.179992,-7.361729 10.316372,-11.24952 16.761753,-12.687183 2.137072,-0.476681 2.552308,-0.485629 26.920174,-0.580147 17.419601,-0.06757 24.990441,-0.02396 25.562771,0.147254 0.92304,0.276128 1.46117,1.210053 1.19426,2.072624 -0.21234,0.686211 -5.03668,5.582984 -5.32489,5.404854 -0.12805,-0.07913 -0.15326,-0.02457 -0.0591,0.127844 0.10023,0.162182 -0.34497,0.79194 -1.14129,1.614401 -1.48134,1.529994 -2.23381,2.820733 -2.40435,4.124331 -0.0644,0.492753 -0.17573,6.237801 -0.24726,12.766773 -0.17863,16.305196 -0.44821,19.973959 -1.67908,22.851227 -1.12746,2.63556 -2.51985,3.24976 -8.62181,3.80323 -3.828376,0.34725 -8.743846,1.73198 -12.077768,3.40243 -3.894527,1.95132 -7.98262,5.30014 -10.441041,8.55292 -2.359754,3.12223 -4.499369,8.19706 -5.513985,13.07831 -0.538011,2.588342 -0.544265,7.727282 -0.0124,10.192282 2.632893,12.20255 11.718619,20.54318 23.750779,21.80302 6.700535,0.70159 13.561545,-1.57735 18.413605,-6.11622 8.84399,-8.27312 9.33416,-22.55523 1.03773,-30.236272 -3.77366,-3.49374 -8.0407,-5.10194 -12.79092,-4.82074 -3.62664,0.21469 -6.670514,1.53021 -9.358401,4.0446 -2.993016,2.79982 -4.520867,6.007232 -4.710717,9.889212 -0.18365,3.75516 0.829757,6.5885 3.212125,8.98062 4.540245,4.55881 11.366453,4.12591 13.860503,-0.879 1.23702,-2.48238 0.37828,-5.48898 -1.84917,-6.47428 -0.99197,-0.4388 -1.00553,-0.43886 -1.58849,-0.007 -0.32338,0.23989 -0.94073,0.95371 -1.3719,1.58626 -0.90064,1.32136 -1.62884,1.67769 -2.77929,1.36003 -1.024705,-0.28293 -1.615966,-1.06779 -1.924688,-2.55488 -0.833908,-4.01694 2.078358,-7.848772 6.558108,-8.628882 3.94588,-0.68715 8.59878,2.00716 10.5438,6.105502 0.9625,2.02808 1.26568,3.45863 1.26144,5.95215 -0.007,3.84578 -1.35774,7.3106 -3.93773,10.09723 -3.53304,3.816 -7.34733,5.36309 -12.6087,5.11413 -5.383228,-0.25473 -9.611892,-2.23539 -13.3573,-6.25642 -4.636046,-4.97723 -6.427358,-12.1692 -4.740678,-19.033472 1.115879,-4.54128 3.453703,-8.62871 6.726143,-11.7599 2.13453,-2.04241 3.726132,-3.14013 6.264769,-4.3208 3.303167,-1.53623 5.811476,-2.17842 9.337996,-2.39074 8.24105,-0.4962 16.63052,3.56147 21.84312,10.56467 2.31618,3.11182 3.92133,6.71127 4.84427,10.862952 0.72919,3.28011 0.73253,8.47246 0.008,11.81465 -1.46058,6.73388 -4.45758,12.39999 -9.16759,17.33224 -5.62508,5.89047 -12.81361,9.55013 -20.84255,10.61086 -3.066307,0.40509 -7.690692,0.39587 -10.555065,-0.0211 z m 23.835671,-26.29543 c 0.0785,-0.12696 -0.0114,-0.16451 -0.21076,-0.088 -0.38802,0.1489 -0.45901,0.30944 -0.13684,0.30944 0.11592,0 0.27234,-0.0996 0.3476,-0.22142 z M 74.193916,101.44709 c -0.07295,-0.1901 -0.180666,-0.29759 -0.239377,-0.23888 -0.05872,0.0588 -0.04031,0.21424 0.04089,0.34563 0.220853,0.35735 0.349939,0.28792 0.198487,-0.10675 z M 85.203561,65.368425 C 90.754624,63.960726 95.303168,59.229657 96.754465,53.354 c 0.577564,-2.338299 0.805361,-6.715071 0.457994,-8.799639 -0.142608,-0.855799 -0.625382,-2.798771 -1.072831,-4.317716 l -0.813545,-2.761717 2.386024,-2.393445 c 1.440403,-1.444888 2.384663,-2.569526 2.382593,-2.837743 -0.009,-1.168384 0.68367,-1.116235 -14.82698,-1.116235 -13.362435,0 -14.487446,0.02954 -15.630663,0.410429 -5.536875,1.844733 -9.382426,5.736882 -11.293313,11.430159 -0.559345,1.666504 -0.395618,1.760212 2.920435,1.671491 3.170627,-0.08483 3.456879,-0.216553 4.834241,-2.224561 1.190097,-1.735003 3.389126,-3.690002 5.033166,-4.47463 6.713396,-3.204009 14.359442,-0.279648 16.445471,6.289852 0.609255,1.918718 0.659276,5.171944 0.108482,7.055322 -1.152584,3.94113 -4.39576,7.008741 -8.52046,8.059218 -0.850808,0.216679 -2.37383,0.339976 -4.199597,0.339976 -3.304381,0 -3.308209,0.0034 -2.212017,1.914426 1.279174,2.230114 3.513134,3.688885 6.290688,4.107792 1.759873,0.265422 4.336105,0.123814 6.159408,-0.338554 z M 77.458229,53.65161 c 0.667593,-0.230485 1.373126,-0.368872 1.567849,-0.307527 0.256951,0.08094 0.277112,0.05595 0.07351,-0.09114 -0.209762,-0.151548 -0.103741,-0.368752 0.420291,-0.861048 1.079375,-1.014008 1.760165,-2.657731 1.756945,-4.24203 -0.0089,-4.381726 -4.806836,-7.145395 -8.471512,-4.879699 -3.298205,2.039123 -3.900505,6.217503 -1.295364,8.986415 1.623082,1.725117 3.629332,2.195635 5.948274,1.395025 z"
       id="path1" /></g></svg>
